<?xml version="1.0" encoding="utf-8"?>
<!-- Svg Vector Icons : http://www.onlinewebfonts.com/icon -->
<!DOCTYPE svg PUBLIC "-//W3C//DTD SVG 1.1//EN" "http://www.w3.org/Graphics/SVG/1.1/DTD/svg11.dtd">
<svg version="1.1" xmlns="http://www.w3.org/2000/svg" xmlns:xlink="http://www.w3.org/1999/xlink" x="0px" y="0px" viewBox="0 0 256 256" enable-background="new 0 0 256 256" xml:space="preserve">
<metadata> Svg Vector Icons : http://www.onlinewebfonts.com/icon </metadata>
<g><g><g><path fill="#000000" d="M116.3,10.2c-32.7,4.2-60.9,24.2-75.5,53.4c-15.4,30.7-13.4,67.7,5,96.3l2.8,4.4v13.3c0,14.7,0.6,18.8,3.5,23.1c4.2,6.3,7.7,7.8,19.6,7.8H80l0.2,14.9c0.2,14.7,0.2,15,1.7,17.2c2.3,3.3,5.2,5,9.2,5.3c5.6,0.4,10.3-2.6,12.1-7.6l0.7-2.3l0.7,2.2c1,2.9,5.5,7,8.4,7.6c6,1.1,11.1-1.3,13.5-6.4c0.7-1.4,1.4-2.5,1.5-2.6c0.2,0,0.7,0.9,1.1,2.1c1,2.8,5,6.3,7.8,6.9c6,1.1,11.1-1.4,13.5-6.4c0.7-1.4,1.4-2.5,1.5-2.5s0.9,1.1,1.5,2.5c0.7,1.4,2.3,3.4,3.6,4.4c2.2,1.7,2.8,1.9,6.9,1.9c5,0,6.4-0.7,9.8-4.9l1.9-2.3l0.2-15l0.2-15h8.8c6,0,9.7-0.3,11.9-0.9c4.1-1.2,8.3-5,10.5-9.4l1.7-3.5l0.3-16.9l0.3-16.9l2-3.1c2.8-4.4,7.2-13.8,9.1-19.6c11-32.7,3.4-69.7-19.4-95.3c-9.1-10.2-18.6-17.4-30.4-23.1c-14.6-7.1-23.9-9.2-40.6-9.5C123.8,9.9,117.5,10,116.3,10.2z M101.3,130.9c7.8,3.6,12.1,10.1,12.4,18.8c0.2,5.8-1.1,10.2-4.5,14.6c-3.6,4.8-11.1,8.4-17.2,8.4c-3.6,0-8.7-1.6-12.2-3.8c-11.3-7.1-13-23.9-3.5-33.6c2.6-2.6,7.1-5.2,10.9-6.2C91.1,128.1,97,128.9,101.3,130.9z M173.2,130.8c7.6,3.6,12.1,10.2,12.5,18.6c0.4,7.8-2.5,14.4-8.6,18.8c-11.2,8.2-26.5,4.6-33-7.9c-1.5-3-1.7-3.9-1.7-9.4c0-5.4,0.2-6.6,1.6-9.6c2.8-5.8,8.6-10.6,15.1-12.2C163.1,128.1,169,128.9,173.2,130.8z M132.1,177.4c1.5,0.4,14.7,14,15.7,16.2c0.5,1.1,0.4,1.6-0.4,2.5c-0.9,0.9-2.9,1-16.9,1.2c-24.3,0.3-24.6,0-12.9-11.9C126.2,176.6,127.3,176,132.1,177.4z"/></g></g></g>
</svg>